<svg xmlns="http://www.w3.org/2000/svg" width="49" height="49" viewBox="0 0 49 49" fill="none">
  <g filter="url(#filter0_d_84_43)">
    <rect x="4" y="4" width="40.9316" height="40.9316" rx="8" fill="white"/>
  </g>
  <path d="M28.7917 15C26.5732 15 24.741 17.0605 24 18.033C23.259 17.0605 21.4268 15 19.2083 15C16.3364 15 14 17.6404 14 20.8854C14 22.6559 14.7027 24.3058 15.9328 25.435C15.9507 25.4659 15.9727 25.4944 15.9983 25.52L23.7058 33.2117C23.7872 33.2927 23.8934 33.3334 24 33.3334C24.1066 33.3334 24.2132 33.2927 24.2946 33.2113L32.2585 25.2503L32.3407 25.1705C32.4058 25.1091 32.4701 25.0468 32.5421 24.9671C32.5722 24.9374 32.597 24.904 32.6161 24.8678C33.5093 23.774 34 22.3633 34 20.8854C34 17.6404 31.6636 15 28.7917 15Z" fill="#FFF200"/>
  <defs>
    <filter id="filter0_d_84_43" x="0" y="0" width="48.9316" height="48.9316" filterUnits="userSpaceOnUse" color-interpolation-filters="sRGB">
      <feFlood flood-opacity="0" result="BackgroundImageFix"/>
      <feColorMatrix in="SourceAlpha" type="matrix" values="0 0 0 0 0 0 0 0 0 0 0 0 0 0 0 0 0 0 127 0" result="hardAlpha"/>
      <feOffset/>
      <feGaussianBlur stdDeviation="2"/>
      <feColorMatrix type="matrix" values="0 0 0 0 0 0 0 0 0 0 0 0 0 0 0 0 0 0 0.25 0"/>
      <feBlend mode="normal" in2="BackgroundImageFix" result="effect1_dropShadow_84_43"/>
      <feBlend mode="normal" in="SourceGraphic" in2="effect1_dropShadow_84_43" result="shape"/>
    </filter>
  </defs>
</svg>
